<?xml version="1.0" encoding="UTF-8" standalone="no"?>
<svg
   version="1.2"
   viewBox="0 0 256 256"
   width="1240"
   height="1240"
   id="svg139"
   sodipodi:docname="rq.svg"
   inkscape:export-filename="rq.svg"
   inkscape:export-xdpi="96"
   inkscape:export-ydpi="96"
   inkscape:version="1.2 (dc2aeda, 2022-05-15)"
   xmlns:inkscape="http://www.inkscape.org/namespaces/inkscape"
   xmlns:sodipodi="http://sodipodi.sourceforge.net/DTD/sodipodi-0.dtd"
   xmlns="http://www.w3.org/2000/svg"
   xmlns:svg="http://www.w3.org/2000/svg"
   xmlns:rdf="http://www.w3.org/1999/02/22-rdf-syntax-ns#"
   xmlns:cc="http://creativecommons.org/ns#"
   xmlns:dc="http://purl.org/dc/elements/1.1/">
  <defs
     id="defs143" />
  <sodipodi:namedview
     id="namedview141"
     pagecolor="#ffffff"
     bordercolor="#000000"
     borderopacity="0.25"
     inkscape:showpageshadow="2"
     inkscape:pageopacity="0.0"
     inkscape:pagecheckerboard="true"
     inkscape:deskcolor="#d1d1d1"
     showgrid="false"
     inkscape:zoom="0.53831355"
     inkscape:cx="575.87256"
     inkscape:cy="390.10722"
     inkscape:window-width="1309"
     inkscape:window-height="456"
     inkscape:window-x="2240"
     inkscape:window-y="1743"
     inkscape:window-maximized="0"
     inkscape:current-layer="svg139" />
  <title
     id="title132">rq</title>
  <style
     id="style134">
		.s0 { fill: #ffffff;stroke: #b7410e;stroke-width: 45 } 
		.s1 { fill: #b7410e } 
	</style>
  <g
     id="Shape 1"
     class="s0">
    <path
       style="color:#000000;fill:#b7410e;stroke-width:0;stroke-dasharray:none"
       d="M 0,0 V 256 H 256 V 0 Z m 22.5,22.5 h 211 v 211 h -211 z"
       id="path1017"
       sodipodi:nodetypes="cccccccccc" />
    <rect
       style="fill:#ffffff;stroke:#000000;stroke-width:0;stroke-dasharray:none;paint-order:normal"
       id="rect2010"
       width="1022.0312"
       height="1022.0312"
       x="108.98438"
       y="108.98438"
       transform="scale(0.20645161)" />
  </g>
  <path
     id="Q"
     class="s1"
     aria-label="Q"
     d="m141.3 181.5q-18.6 0-30-12.4-11.2-12.3-11.2-32.1 0-21.3 11.4-33.9 11.6-12.7 31.3-12.7 18.2 0 29.4 12.3 11.2 12.3 11.2 32.1 0 21.6-11.5 34.1-2.7 3.1-5.7 5.2l24.7 17.8h-18.7l-16.6-12.5q-6.5 2.1-14.3 2.1zm0.8-81.7q-13.9 0-22.6 10-8.6 10-8.6 26.3 0 16.2 8.4 26.2 8.5 9.9 22 9.9 14.5 0 22.9-9.5 8.3-9.4 8.3-26.4 0-17.5-8.1-27-8.1-9.5-22.3-9.5z" />
  <path
     id="r"
     class="s1"
     aria-label="r"
     d="m94.6 147.7v7.3q-1.9-1.4-5.4-1.4-4.5 0-7.6 4.3-3 4.2-3 11.6v22.5h-7.1v-44.1h7.1v9.1h0.2q1.5-4.7 4.6-7.3 3.1-2.6 6.9-2.6 2.8 0 4.3 0.6z" />
  <metadata
     id="metadata2012">
    <rdf:RDF>
      <cc:Work
         rdf:about="">
        <dc:title>rq</dc:title>
      </cc:Work>
    </rdf:RDF>
  </metadata>
</svg>
